{
  "accessors": [
    {
      "bufferView": 2,
      "componentType": 5126,
      "count": 2680,
      "max": [
        0.010125325061380863,
        0.10099995136260986,
        0.223423033952713
      ],
      "min": [
        -0.003081277944147587,
        0.047576986253261566,
        0.14500002562999725
      ],
      "type": "VEC3"
    },
    {
      "bufferView": 2,
      "byteOffset": 32160,
      "componentType": 5126,
      "count": 2680,
      "max": [
        1.0,
        1.0,
        1.0
      ],
      "min": [
        -1.0,
        -1.0,
        -1.0
      ],
      "type": "VEC3"
    },
    {
      "bufferView": 1,
      "componentType": 5126,
      "count": 2680,
      "max": [
        0.9318918585777283,
        1.0
      ],
      "min": [
        0.01000000536441803,
        -9.363714248422639e-09
      ],
      "type": "VEC2"
    },
    {
      "bufferView": 0,
      "componentType": 5125,
      "count": 3072,
      "type": "SCALAR"
    },
    {
      "bufferView": 2,
      "byteOffset": 64320,
      "componentType": 5126,
      "count": 106,
      "max": [
        0.010000000707805157,
        0.10000006854534149,
        0.2309999167919159
      ],
      "min": [
        -1.2434497875801753e-14,
        5.21540641784668e-08,
        0.030999988317489624
      ],
      "type": "VEC3"
    },
    {
      "bufferView": 2,
      "byteOffset": 65592,
      "componentType": 5126,
      "count": 106,
      "max": [
        0.7071011066436768,
        1.0,
        1.0
      ],
      "min": [
        -1.0,
        -1.0,
        -1.0
      ],
      "type": "VEC3"
    },
    {
      "bufferView": 1,
      "byteOffset": 21440,
      "componentType": 5126,
      "count": 106,
      "max": [
        1.1131095886230469,
        1.1239137649536133
      ],
      "min": [
        -0.10788536071777344,
        -0.11934901028871536
      ],
      "type": "VEC2"
    },
    {
      "bufferView": 0,
      "byteOffset": 12288,
      "componentType": 5125,
      "count": 126,
      "type": "SCALAR"
    },
    {
      "bufferView": 2,
      "byteOffset": 66864,
      "componentType": 5126,
      "count": 68,
      "max": [
        -3.259628300611439e-08,
        0.08999998867511749,
        0.22100000083446503
      ],
      "min": [
        -0.0005929817561991513,
        0.06800012290477753,
        0.17100000381469727
      ],
      "type": "VEC3"
    },
    {
      "bufferView": 2,
      "byteOffset": 67680,
      "componentType": 5126,
      "count": 68,
      "max": [
        0.0,
        1.0,
        1.0
      ],
      "min": [
        0.0,
        -1.0,
        -1.0
      ],
      "type": "VEC3"
    },
    {
      "bufferView": 1,
      "byteOffset": 22288,
      "componentType": 5126,
      "count": 68,
      "max": [
        0.6991198062896729,
        0.8241198658943176
      ],
      "min": [
        0.30088010430336,
        0.42588016390800476
      ],
      "type": "VEC2"
    },
    {
      "bufferView": 0,
      "byteOffset": 12792,
      "componentType": 5125,
      "count": 72,
      "type": "SCALAR"
    },
    {
      "bufferView": 2,
      "byteOffset": 68496,
      "componentType": 5126,
      "count": 4,
      "max": [
        0.010000000707805157,
        0.0987490564584732,
        0.2297489196062088
      ],
      "min": [
        0.009999999776482582,
        0.0012510712258517742,
        0.032251015305519104
      ],
      "type": "VEC3"
    },
    {
      "bufferView": 2,
      "byteOffset": 68544,
      "componentType": 5126,
      "count": 4,
      "max": [
        1.0,
        -1.2091550871673462e-08,
        0.0
      ],
      "min": [
        1.0,
        -1.2091550871673462e-08,
        0.0
      ],
      "type": "VEC3"
    },
    {
      "bufferView": 1,
      "byteOffset": 22832,
      "componentType": 5126,
      "count": 4,
      "max": [
        0.6394543051719666,
        0.9134501218795776
      ],
      "min": [
        0.36423376202583313,
        0.07533532381057739
      ],
      "type": "VEC2"
    },
    {
      "bufferView": 0,
      "byteOffset": 13080,
      "componentType": 5125,
      "count": 6,
      "type": "SCALAR"
    }
  ],
  "asset": {
    "extras": {
      "author": "Kevuhn (https://sketchfab.com/Kevuhn)",
      "license": "CC-BY-4.0 (http://creativecommons.org/licenses/by/4.0/)",
      "source": "https://sketchfab.com/3d-models/smartphonephonesamsung-bea5f90a9f094faeb432cc22bdb420b8",
      "title": "SmartPhone/Phone/Samsung"
    },
    "generator": "Sketchfab-15.55.0",
    "version": "2.0"
  },
  "bufferViews": [
    {
      "buffer": 0,
      "byteLength": 13104,
      "name": "floatBufferViews",
      "target": 34963
    },
    {
      "buffer": 0,
      "byteLength": 22864,
      "byteOffset": 13104,
      "byteStride": 8,
      "name": "floatBufferViews",
      "target": 34962
    },
    {
      "buffer": 0,
      "byteLength": 68592,
      "byteOffset": 35968,
      "byteStride": 12,
      "name": "floatBufferViews",
      "target": 34962
    }
  ],
  "buffers": [
    {
      "byteLength": 104560,
      "uri": "scene.bin"
    }
  ],
  "images": [
    {
      "uri": "textures/Material.003_baseColor.jpeg"
    },
    {
      "uri": "textures/Material.001_baseColor.jpeg"
    },
    {
      "uri": "textures/Material.002_baseColor.jpeg"
    }
  ],
  "materials": [
    {
      "doubleSided": true,
      "name": "Material.003",
      "pbrMetallicRoughness": {
        "baseColorTexture": {
          "index": 0
        },
        "metallicFactor": 0.0,
        "roughnessFactor": 0.8211145618000169
      }
    },
    {
      "doubleSided": true,
      "name": "Material.001",
      "pbrMetallicRoughness": {
        "baseColorTexture": {
          "index": 1
        },
        "metallicFactor": 0.0,
        "roughnessFactor": 0.8211145618000169
      }
    },
    {
      "doubleSided": true,
      "name": "Material.004",
      "pbrMetallicRoughness": {
        "baseColorFactor": [
          0.8,
          0.8,
          0.8,
          1.0
        ],
        "metallicFactor": 0.0,
        "roughnessFactor": 0.8211145618000169
      }
    },
    {
      "doubleSided": true,
      "name": "Material.002",
      "pbrMetallicRoughness": {
        "baseColorTexture": {
          "index": 2
        },
        "metallicFactor": 0.0,
        "roughnessFactor": 0.8211145618000169
      }
    }
  ],
  "meshes": [
    {
      "name": "Cube_Material.003_0",
      "primitives": [
        {
          "attributes": {
            "NORMAL": 1,
            "POSITION": 0,
            "TEXCOORD_0": 2
          },
          "indices": 3,
          "material": 0,
          "mode": 4
        }
      ]
    },
    {
      "name": "Cube_Material.001_0",
      "primitives": [
        {
          "attributes": {
            "NORMAL": 5,
            "POSITION": 4,
            "TEXCOORD_0": 6
          },
          "indices": 7,
          "material": 1,
          "mode": 4
        }
      ]
    },
    {
      "name": "Cube_Material.004_0",
      "primitives": [
        {
          "attributes": {
            "NORMAL": 9,
            "POSITION": 8,
            "TEXCOORD_0": 10
          },
          "indices": 11,
          "material": 2,
          "mode": 4
        }
      ]
    },
    {
      "name": "Cube_Material.002_0",
      "primitives": [
        {
          "attributes": {
            "NORMAL": 13,
            "POSITION": 12,
            "TEXCOORD_0": 14
          },
          "indices": 15,
          "material": 3,
          "mode": 4
        }
      ]
    }
  ],
  "nodes": [
    {
      "children": [
        1
      ],
      "matrix": [
        1.0,
        0.0,
        0.0,
        0.0,
        0.0,
        2.220446049250313e-16,
        -1.0,
        0.0,
        0.0,
        1.0,
        2.220446049250313e-16,
        0.0,
        0.0,
        0.0,
        0.0,
        1.0
      ],
      "name": "Sketchfab_model"
    },
    {
      "children": [
        2
      ],
      "matrix": [
        0.009999999776482582,
        0.0,
        0.0,
        0.0,
        0.0,
        0.0,
        0.009999999776482582,
        0.0,
        0.0,
        -0.009999999776482582,
        0.0,
        0.0,
        0.0,
        0.0,
        0.0,
        1.0
      ],
      "name": "571db04fef7d4d8a9ec8ba533a3c5162.fbx"
    },
    {
      "children": [
        3
      ],
      "name": "RootNode"
    },
    {
      "children": [
        4,
        5,
        6,
        7
      ],
      "matrix": [
        100.0,
        0.0,
        0.0,
        0.0,
        0.0,
        -1.629206793918314e-05,
        -99.99999999999868,
        0.0,
        0.0,
        99.99999999999868,
        -1.629206793918314e-05,
        0.0,
        0.0,
        -3.1000001430511475,
        0.0,
        1.0
      ],
      "name": "Cube"
    },
    {
      "mesh": 0,
      "name": "Cube_Material.003_0"
    },
    {
      "mesh": 1,
      "name": "Cube_Material.001_0"
    },
    {
      "mesh": 2,
      "name": "Cube_Material.004_0"
    },
    {
      "mesh": 3,
      "name": "Cube_Material.002_0"
    }
  ],
  "samplers": [
    {
      "magFilter": 9729,
      "minFilter": 9987,
      "wrapS": 10497,
      "wrapT": 10497
    }
  ],
  "scene": 0,
  "scenes": [
    {
      "name": "Sketchfab_Scene",
      "nodes": [
        0
      ]
    }
  ],
  "textures": [
    {
      "sampler": 0,
      "source": 0
    },
    {
      "sampler": 0,
      "source": 1
    },
    {
      "sampler": 0,
      "source": 2
    }
  ]
}
